<svg xmlns="http://www.w3.org/2000/svg" width="24" height="24" viewBox="0 0 24 24"><filter filterUnits="objectBoundingBox" x="-4.55" y="-4.55" width="109.09" height="113.64" id="a"><feGaussianBlur in="SourceAlpha" stdDeviation=".5" result="dsBlurOut1"/><feFlood flood-color="#0A5723" result="dsFloodOut1"/><feComposite in="dsFloodOut1" in2="dsBlurOut1" operator="in" result="dsShadow1"/><feOffset in="dsShadow1" dy="1" result="dsOffset1"/><feComposite in="dsOffset1" in2="SourceAlpha" operator="out" result="dropShadow1"/><feBlend in="dropShadow1" in2="SourceGraphic" result="sourceGraphic"/></filter><path d="M12 22C5.92 22 1 17.08 1 11S5.92 0 12 0s11 4.92 11 11-4.92 11-11 11zm1.11-4.99L13 15h-2l-.03 2.01h2.14zm1.81-10.98C14.19 5.35 13.21 5 11.99 5c-1.17 0-2.11.34-2.83 1.02-.71.67-1.1 1.5-1.16 2.46l1.96.26c.14-.67.39-1.18.76-1.51.36-.33.82-.49 1.36-.49.56 0 1.01.16 1.34.47.33.32.5.7.5 1.14 0 .32-.09.61-.28.88-.12.17-.5.52-1.12 1.06-.62.54-1.04 1.03-1.25 1.46-.2.43-.31.98-.31 1.65 0 .07.03.3.04.6h2c-.01-.63-.05-1.11.06-1.36.11-.24.39-.56.84-.96.87-.78 1.44-1.39 1.7-1.83.27-.45.4-.93.4-1.43 0-.91-.36-1.71-1.08-2.39z" fill="#FFF" filter="url(#a)"/></svg>