<svg xmlns="http://www.w3.org/2000/svg" width="24" height="24" viewBox="0 0 24 24"><filter filterUnits="objectBoundingBox" x="-4.55" y="-4.55" width="109.09" height="113.64" id="a"><feGaussianBlur in="SourceAlpha" stdDeviation=".5" result="dsBlurOut1"/><feFlood flood-color="#0A5723" result="dsFloodOut1"/><feComposite in="dsFloodOut1" in2="dsBlurOut1" operator="in" result="dsShadow1"/><feOffset in="dsShadow1" dy="1" result="dsOffset1"/><feComposite in="dsOffset1" in2="SourceAlpha" operator="out" result="dropShadow1"/><feBlend in="dropShadow1" in2="SourceGraphic" result="sourceGraphic"/></filter><path d="M23 12.2V9.7l-.35-.12-2.68-.88-.72-1.72 1.38-2.91-1.77-1.77-.34.17-2.51 1.27-1.73-.71L13.2 0h-2.5l-.12.35-.88 2.68-1.72.72-2.91-1.38L3.3 4.14l.17.34 1.27 2.51-.71 1.73L1 9.8v2.5l.35.12 2.68.88.72 1.72-1.38 2.91 1.77 1.77.34-.17 2.51-1.27 1.73.71L10.8 22h2.5l.12-.35.88-2.68 1.72-.72 2.91 1.38 1.77-1.77-.17-.34-1.27-2.51.71-1.73L23 12.2zm-11 2.31c-1.94 0-3.51-1.57-3.51-3.51 0-1.94 1.57-3.51 3.51-3.51 1.94 0 3.51 1.57 3.51 3.51 0 1.94-1.57 3.51-3.51 3.51z" fill="#FFF" filter="url(#a)"/></svg>