<?xml version="1.0" encoding="utf-8"?>
<svg xmlns="http://www.w3.org/2000/svg"
	xmlns:xlink="http://www.w3.org/1999/xlink"
	width="24px" height="24px" viewBox="0 0 24 24">
<filter filterUnits="objectBoundingBox" x="-4.55" y="-4.55" width="109.09" height="113.64" id="filter0">
<feGaussianBlur in="SourceAlpha" stdDeviation="0.50" result="dsBlurOut1"/>
<feFlood flood-color="rgb(10,87,35)" result="dsFloodOut1"/>
<feComposite in="dsFloodOut1" in2="dsBlurOut1" operator="in" result="dsShadow1"/>
<feOffset in="dsShadow1" dx="-0.00" dy="1.00" result="dsOffset1"/>
<feComposite in="dsOffset1" in2="SourceAlpha" operator="out" result="dropShadow1"/>
<feBlend in="dropShadow1" in2="SourceGraphic" mode="normal" result="sourceGraphic"/>
</filter>
<path fillRule="evenodd" d="M 23 12.2C 23 12.2 23 9.7 23 9.7 23 9.7 22.65 9.58 22.65 9.58 22.65 9.58 19.97 8.7 19.97 8.7 19.97 8.7 19.25 6.98 19.25 6.98 19.25 6.98 20.63 4.07 20.63 4.07 20.63 4.07 18.86 2.3 18.86 2.3 18.86 2.3 18.52 2.47 18.52 2.47 18.52 2.47 16.01 3.74 16.01 3.74 16.01 3.74 14.28 3.03 14.28 3.03 14.28 3.03 13.2-0 13.2-0 13.2-0 10.7-0 10.7-0 10.7-0 10.58 0.35 10.58 0.35 10.58 0.35 9.7 3.03 9.7 3.03 9.7 3.03 7.98 3.75 7.98 3.75 7.98 3.75 5.07 2.37 5.07 2.37 5.07 2.37 3.3 4.14 3.3 4.14 3.3 4.14 3.47 4.48 3.47 4.48 3.47 4.48 4.74 6.99 4.74 6.99 4.74 6.99 4.03 8.72 4.03 8.72 4.03 8.72 1 9.8 1 9.8 1 9.8 1 12.3 1 12.3 1 12.3 1.35 12.42 1.35 12.42 1.35 12.42 4.03 13.3 4.03 13.3 4.03 13.3 4.75 15.02 4.75 15.02 4.75 15.02 3.37 17.93 3.37 17.93 3.37 17.93 5.14 19.7 5.14 19.7 5.14 19.7 5.48 19.53 5.48 19.53 5.48 19.53 7.99 18.26 7.99 18.26 7.99 18.26 9.72 18.97 9.72 18.97 9.72 18.97 10.8 22 10.8 22 10.8 22 13.3 22 13.3 22 13.3 22 13.42 21.65 13.42 21.65 13.42 21.65 14.3 18.97 14.3 18.97 14.3 18.97 16.02 18.25 16.02 18.25 16.02 18.25 18.93 19.63 18.93 19.63 18.93 19.63 20.7 17.86 20.7 17.86 20.7 17.86 20.53 17.52 20.53 17.52 20.53 17.52 19.26 15.01 19.26 15.01 19.26 15.01 19.97 13.28 19.97 13.28 19.97 13.28 23 12.2 23 12.2ZM 12 14.51C 10.06 14.51 8.49 12.94 8.49 11 8.49 9.06 10.06 7.49 12 7.49 13.94 7.49 15.51 9.06 15.51 11 15.51 12.94 13.94 14.51 12 14.51Z" fill="rgb(255,255,255)" filter="url(#filter0)"/></svg>